<svg width="872" height="150" viewBox="0 0 872 150" fill="none" xmlns="http://www.w3.org/2000/svg">
<g filter="url(#filter0_d_91_96)">
<path d="M65.5122 119.272C58.6547 119.272 52.0829 118.374 45.7968 116.578C39.5108 114.701 34.4493 112.292 30.6123 109.353L37.3474 94.4137C41.0211 97.0261 45.3478 99.1895 50.3277 100.904C55.3892 102.537 60.4915 103.353 65.6346 103.353C69.5532 103.353 72.6962 102.986 75.0637 102.251C77.5128 101.435 79.3088 100.332 80.4517 98.9446C81.5947 97.5568 82.1661 95.9648 82.1661 94.1688C82.1661 91.883 81.2681 90.087 79.4721 88.7808C77.6761 87.3929 75.3086 86.2908 72.3697 85.4745C69.4307 84.5765 66.1653 83.7601 62.5732 83.0254C59.0628 82.209 55.5116 81.2294 51.9196 80.0864C48.4092 78.9435 45.1846 77.474 42.2456 75.678C39.3067 73.882 36.8984 71.5145 35.0207 68.5756C33.2247 65.6367 32.3267 61.8814 32.3267 57.3097C32.3267 52.4115 33.6329 47.9623 36.2453 43.962C38.9393 39.8802 42.9395 36.6555 48.2459 34.2881C53.634 31.839 60.369 30.6144 68.4511 30.6144C73.8391 30.6144 79.1456 31.2675 84.3703 32.5737C89.5951 33.7982 94.2076 35.6759 98.2078 38.2066L92.085 53.2687C88.0848 50.9828 84.0846 49.3093 80.0844 48.248C76.0842 47.1051 72.1656 46.5336 68.3287 46.5336C64.4917 46.5336 61.3487 46.9826 58.8996 47.8806C56.4505 48.7786 54.6953 49.9624 53.634 51.4318C52.5727 52.8197 52.0421 54.4524 52.0421 56.3301C52.0421 58.5343 52.9401 60.3303 54.7361 61.7181C56.5321 63.0243 58.8996 64.0856 61.8385 64.9019C64.7774 65.7183 68.0021 66.5347 71.5125 67.3511C75.1045 68.1674 78.6557 69.1063 82.1661 70.1675C85.7582 71.2288 89.0236 72.6575 91.9626 74.4535C94.9015 76.2495 97.269 78.617 99.065 81.5559C100.943 84.4948 101.881 88.2093 101.881 92.6994C101.881 97.5159 100.534 101.924 97.8404 105.925C95.1464 109.925 91.1054 113.149 85.7173 115.599C80.4109 118.048 73.6759 119.272 65.5122 119.272ZM131.997 117.803V48.248H104.567V32.0839H179.265V48.248H151.835V117.803H131.997ZM230.377 119.272C223.602 119.272 217.316 118.17 211.519 115.966C205.805 113.762 200.825 110.659 196.58 106.659C192.416 102.659 189.151 97.9649 186.783 92.5769C184.497 87.1889 183.355 81.311 183.355 74.9433C183.355 68.5756 184.497 62.6977 186.783 57.3097C189.151 51.9217 192.457 47.2275 196.702 43.2273C200.947 39.2271 205.927 36.1249 211.642 33.9207C217.356 31.7165 223.561 30.6144 230.255 30.6144C237.031 30.6144 243.235 31.7165 248.868 33.9207C254.583 36.1249 259.522 39.2271 263.685 43.2273C267.931 47.2275 271.237 51.9217 273.604 57.3097C275.972 62.6161 277.155 68.494 277.155 74.9433C277.155 81.311 275.972 87.2297 273.604 92.6994C271.237 98.0874 267.931 102.782 263.685 106.782C259.522 110.7 254.583 113.762 248.868 115.966C243.235 118.17 237.072 119.272 230.377 119.272ZM230.255 102.373C234.092 102.373 237.602 101.72 240.786 100.414C244.052 99.1079 246.909 97.2302 249.358 94.7811C251.807 92.332 253.685 89.4339 254.991 86.0868C256.379 82.7396 257.073 79.0252 257.073 74.9433C257.073 70.8615 256.379 67.147 254.991 63.7998C253.685 60.4527 251.807 57.5546 249.358 55.1055C246.991 52.6564 244.174 50.7787 240.909 49.4726C237.643 48.1664 234.092 47.5133 230.255 47.5133C226.418 47.5133 222.867 48.1664 219.601 49.4726C216.418 50.7787 213.601 52.6564 211.152 55.1055C208.703 57.5546 206.784 60.4527 205.397 63.7998C204.09 67.147 203.437 70.8615 203.437 74.9433C203.437 78.9435 204.09 82.658 205.397 86.0868C206.784 89.4339 208.662 92.332 211.03 94.7811C213.479 97.2302 216.336 99.1079 219.601 100.414C222.867 101.72 226.418 102.373 230.255 102.373ZM292.064 117.803V32.0839H308.473L359.048 93.8015H351.088V32.0839H370.681V117.803H354.394L303.698 56.0852H311.657V117.803H292.064ZM409.208 66.6163H450.475V82.0457H409.208V66.6163ZM410.677 101.884H457.333V117.803H390.962V32.0839H455.741V48.0031H410.677V101.884ZM491.485 70.6574H532.63V86.5766H491.485V70.6574ZM492.955 117.803H473.117V32.0839H537.896V48.0031H492.955V117.803ZM592.124 119.272C585.348 119.272 579.062 118.17 573.265 115.966C567.551 113.762 562.571 110.659 558.326 106.659C554.162 102.659 550.897 97.9649 548.529 92.5769C546.244 87.1889 545.101 81.311 545.101 74.9433C545.101 68.5756 546.244 62.6977 548.529 57.3097C550.897 51.9217 554.203 47.2275 558.448 43.2273C562.693 39.2271 567.673 36.1249 573.388 33.9207C579.102 31.7165 585.307 30.6144 592.001 30.6144C598.777 30.6144 604.981 31.7165 610.614 33.9207C616.329 36.1249 621.268 39.2271 625.431 43.2273C629.677 47.2275 632.983 51.9217 635.35 57.3097C637.718 62.6161 638.902 68.494 638.902 74.9433C638.902 81.311 637.718 87.2297 635.35 92.6994C632.983 98.0874 629.677 102.782 625.431 106.782C621.268 110.7 616.329 113.762 610.614 115.966C604.981 118.17 598.818 119.272 592.124 119.272ZM592.001 102.373C595.838 102.373 599.348 101.72 602.532 100.414C605.798 99.1079 608.655 97.2302 611.104 94.7811C613.553 92.332 615.431 89.4339 616.737 86.0868C618.125 82.7396 618.819 79.0252 618.819 74.9433C618.819 70.8615 618.125 67.147 616.737 63.7998C615.431 60.4527 613.553 57.5546 611.104 55.1055C608.737 52.6564 605.92 50.7787 602.655 49.4726C599.389 48.1664 595.838 47.5133 592.001 47.5133C588.164 47.5133 584.613 48.1664 581.347 49.4726C578.164 50.7787 575.347 52.6564 572.898 55.1055C570.449 57.5546 568.53 60.4527 567.143 63.7998C565.836 67.147 565.183 70.8615 565.183 74.9433C565.183 78.9435 565.836 82.658 567.143 86.0868C568.53 89.4339 570.408 92.332 572.776 94.7811C575.225 97.2302 578.082 99.1079 581.347 100.414C584.613 101.72 588.164 102.373 592.001 102.373ZM653.81 117.803V32.0839H690.914C698.588 32.0839 705.201 33.3492 710.752 35.88C716.304 38.3291 720.59 41.8803 723.61 46.5336C726.631 51.1869 728.141 56.7382 728.141 63.1876C728.141 69.5553 726.631 75.0658 723.61 79.7191C720.59 84.2907 716.304 87.8011 710.752 90.2502C705.201 92.6994 698.588 93.9239 690.914 93.9239H664.831L673.648 85.2296V117.803H653.81ZM708.303 117.803L686.873 86.699H708.058L729.733 117.803H708.303ZM673.648 87.4338L664.831 78.1271H689.812C695.935 78.1271 700.507 76.821 703.527 74.2086C706.548 71.5145 708.058 67.8409 708.058 63.1876C708.058 58.4526 706.548 54.779 703.527 52.1666C700.507 49.5542 695.935 48.248 689.812 48.248H664.831L673.648 38.8189V87.4338ZM743.858 117.803V32.0839H760.267L796.759 92.5769H788.065L823.944 32.0839H840.231L840.476 117.803H821.863L821.74 60.616H825.169L796.514 108.741H787.575L758.308 60.616H762.472V117.803H743.858Z" fill="url(#paint0_linear_91_96)"/>
</g>
<defs>
<filter id="filter0_d_91_96" x="-0.000598907" y="0.00135422" width="871.091" height="149.884" filterUnits="userSpaceOnUse" color-interpolation-filters="sRGB">
<feFlood flood-opacity="0" result="BackgroundImageFix"/>
<feColorMatrix in="SourceAlpha" type="matrix" values="0 0 0 0 0 0 0 0 0 0 0 0 0 0 0 0 0 0 127 0" result="hardAlpha"/>
<feOffset/>
<feGaussianBlur stdDeviation="15.3069"/>
<feComposite in2="hardAlpha" operator="out"/>
<feColorMatrix type="matrix" values="0 0 0 0 0.705882 0 0 0 0 0.219608 0 0 0 0 0.827451 0 0 0 1 0"/>
<feBlend mode="normal" in2="BackgroundImageFix" result="effect1_dropShadow_91_96"/>
<feBlend mode="normal" in="SourceGraphic" in2="effect1_dropShadow_91_96" result="shape"/>
</filter>
<linearGradient id="paint0_linear_91_96" x1="439.184" y1="35.7758" x2="439.184" y2="115.276" gradientUnits="userSpaceOnUse">
<stop stop-color="white"/>
<stop offset="1" stop-color="#999999"/>
</linearGradient>
</defs>
</svg>
