<?xml version="1.0" encoding="UTF-8" standalone="no"?>
<svg xmlns:dc="http://purl.org/dc/elements/1.1/" xmlns:cc="http://creativecommons.org/ns#" xmlns:rdf="http://www.w3.org/1999/02/22-rdf-syntax-ns#" xmlns:svg="http://www.w3.org/2000/svg" xmlns="http://www.w3.org/2000/svg" version="1.1" viewBox="0 0 1024.0001 332.54009" height="93.850204mm" width="288.99557mm">
	<title>Central Brasileira de Notícias (CBN)</title>
	<g transform="translate(137.57723,-317.65419)">
		<path d="m 62.043519,317.65419 c -30.78027,0 -58.4623095,5.62762 -83.1507,16.90593 -24.65401,11.26108 -45.60235,25.97243 -62.80629,44.06465 -17.203869,18.13232 -30.452489,38.69237 -39.730699,61.6959 -9.2954,22.98634 -13.93306,46.35881 -13.93306,70.11307 0,21.30721 3.72324,40.57246 11.20197,57.76495 7.44435,17.21538 17.87015,31.91353 31.268819,44.09153 13.39867,12.17803 29.30885,21.53718 47.74492,28.09899 18.41887,6.52741 38.7497005,9.80507 60.97957,9.80507 30.44786,0 56.46975,-5.5528 78.10935,-16.68207 21.616681,-11.11779 40.207481,-25.48645 55.732281,-43.16031 L 87.617349,537.35968 c -10.34988,10.37281 -20.84874,18.36446 -31.51954,23.99783 -10.66506,5.64486 -22.99923,8.453 -36.99964,8.453 -18.58506951,0 -33.87458,-5.87021 -45.90932,-17.59546 -12.02899,-11.70809 -18.03418,-27.78841 -18.03418,-48.2016 0,-13.98895 2.50475,-27.31313 7.53068,-39.97252 5.02021,-12.63073 11.79904,-23.80407 20.32651,-33.5522 8.5160105,-9.73666 18.5675105,-17.51193 30.14951,-23.31726 11.55334,-5.76522 24.05189,-8.66789 37.45634,-8.66789 15.83427,0 28.92165,3.58177 39.28297,10.7453 10.344141,7.1578 18.719051,17.26124 25.126101,30.37336 l 76.73041,-41.11866 c -9.74242,-24.66548 -25.5656,-44.30965 -47.5032,-58.92903 -21.9204,-14.60783 -49.344191,-21.92036 -82.210471,-21.92036 z m 189.556041,6.40238 -85.88183,319.75321 165.82684,0 c 24.66548,0 46.13026,-2.51621 64.40014,-7.53068 18.28133,-5.04312 33.43505,-11.87711 45.4526,-20.55932 12.03472,-8.67647 20.9408,-18.95903 26.72894,-30.83903 5.77093,-11.87428 8.67682,-24.65007 8.67682,-38.36966 0,-16.436 -4.50515,-29.93279 -13.48536,-40.42021 -8.97448,-10.52752 -20.63272,-18.36299 -34.93116,-23.53224 22.5164,-5.4844 40.10578,-15.37722 52.75938,-29.69283 12.64225,-14.32133 18.9386,-31.65419 18.9386,-52.07885 0,-10.04614 -1.89868,-19.70547 -5.70397,-29.01232 -3.81098,-9.27248 -10.21159,-17.49443 -19.18034,-24.66941 -8.99739,-7.15209 -20.84979,-12.78155 -35.62959,-16.87908 -14.76833,-4.10901 -33.11665,-6.16958 -55.04278,-6.16958 l -132.92829,0 z m 333.34598,0 -85.88178,319.75321 88.1741,0 49.32092,-184.09384 86.33844,184.09384 77.6527,0 85.8729,-319.75321 -88.1562,0 -47.951,177.6914 -82.685,-177.6914 -82.68508,0 z m -265.42676,68.42964 55.2756,0 c 33.10121,0 37.59958,16.60115 37.59958,26.8364 0,8.34981 -1.85858,34.13422 -48.54188,34.13422 l -59.86921,0 15.53591,-60.97062 z m -30.44504,113.88223 61.20344,0 c 26.18413,0 37.72496,14.49972 37.72496,31.10765 0,9.9831 -6.22082,38.84427 -50.07311,38.84427 l -67.15808,0 18.30279,-69.95192 z" style="fill:#e01b22;fill-opacity:1;fill-rule:nonzero;stroke:none" />
	</g>
</svg>
